<?xml version="1.0" standalone="no"?>
<!DOCTYPE svg PUBLIC "-//W3C//DTD SVG 20010904//EN"
 "http://www.w3.org/TR/2001/REC-SVG-20010904/DTD/svg10.dtd">
<svg version="1.0" xmlns="http://www.w3.org/2000/svg"
 width="736.000000pt" height="736.000000pt" viewBox="0 0 736.000000 736.000000"
 preserveAspectRatio="xMidYMid meet">
<metadata>
Created by potrace 1.11, written by Peter Selinger 2001-2013
</metadata>
<g transform="translate(0.000000,736.000000) scale(0.100000,-0.100000)"
fill="#000000" stroke="none">
<path d="M3638 6235 c-2 -2 -138 -6 -303 -9 -165 -4 -313 -8 -330 -10 -28 -4
-105 -14 -150 -21 -50 -7 -197 -48 -260 -72 -109 -41 -275 -129 -340 -180 -83
-65 -161 -134 -206 -180 -64 -68 -149 -168 -149 -178 0 -3 -6 -13 -12 -20 -7
-8 -18 -20 -23 -27 -16 -20 -98 -158 -120 -203 -11 -22 -23 -41 -27 -43 -5 -2
-8 -8 -8 -13 0 -4 -11 -32 -25 -61 -80 -173 -167 -451 -190 -613 -2 -11 -4
-20 -5 -20 -2 0 -8 -35 -15 -89 -4 -27 -8 -58 -11 -69 -2 -11 -6 -59 -10 -106
-3 -47 -7 -98 -9 -113 -3 -39 6 -35 38 16 40 63 157 178 229 225 35 22 68 45
75 50 6 6 23 13 37 17 14 3 26 10 26 15 0 5 3 8 8 7 4 -1 24 6 45 15 62 27
185 61 292 82 89 16 196 20 550 16 1107 -10 2507 -3 2691 14 92 9 181 21 224
30 14 4 36 8 50 11 14 3 33 7 42 10 9 3 25 7 35 9 76 15 286 97 398 155 117
61 314 190 323 212 2 4 8 8 13 8 30 0 301 266 404 395 21 28 44 55 49 60 23
21 182 257 224 330 12 22 41 78 65 125 23 47 46 88 50 91 5 3 9 10 9 15 1 13
8 35 23 69 8 16 12 32 9 34 -2 2 -109 6 -237 8 -290 5 -3474 12 -3479 8z"/>
<path d="M2257 3964 c-1 -1 -54 -5 -117 -8 -256 -16 -479 -65 -709 -156 -114
-45 -311 -151 -349 -187 -7 -7 -18 -13 -24 -13 -6 0 -18 -7 -27 -15 -9 -9 -41
-35 -71 -58 -30 -23 -66 -51 -79 -62 -42 -35 -198 -193 -233 -236 -18 -23 -38
-46 -44 -53 -16 -17 -124 -164 -124 -169 0 -3 -18 -31 -39 -63 -173 -261 -346
-735 -398 -1089 -4 -27 -8 -52 -8 -55 -1 -3 -5 -30 -9 -60 -4 -30 -9 -71 -12
-90 -3 -19 -7 -145 -9 -279 l-4 -245 24 37 c14 20 25 41 25 46 0 6 5 11 10 11
6 0 10 5 10 10 0 15 156 249 226 341 111 144 240 282 354 379 36 30 67 58 70
61 13 16 203 140 260 170 68 36 161 78 189 85 9 2 46 12 84 23 59 17 175 35
217 32 8 0 62 0 120 0 144 -1 211 -2 240 -5 14 -1 29 0 34 3 5 2 30 4 55 3 25
-1 93 -2 151 -2 139 0 210 -1 240 -4 14 -1 29 0 34 3 5 2 30 3 55 2 355 -15
587 42 930 228 14 8 28 18 29 23 2 4 8 8 14 8 9 0 147 92 200 134 14 12 35 28
46 36 95 72 377 345 462 449 25 30 60 70 77 90 18 20 35 44 39 54 3 9 9 17 13
17 4 0 25 24 45 54 21 30 46 65 57 78 29 36 30 37 102 145 37 56 67 106 67
112 0 5 4 11 8 13 12 5 107 171 107 187 0 13 -158 15 -1168 15 -643 1 -1169 0
-1170 0z"/>
</g>
</svg>
